<svg xmlns="http://www.w3.org/2000/svg" viewBox="-4.124999084472648 143.26998992919923 583.25 299.2400007629394"><rect height="100%" width="100%" x="-4.124999084472648" y="143.26998992919923" fill="rgba(0, 0, 0, 1)"/> <svg xmlns="http://www.w3.org/2000/svg" xmlns:xlink="http://www.w3.org/1999/xlink" version="1.1" id="cccc_1" x="237.99900762939453" y="213.26998992919923" viewBox="1575.760009765625 790.25 1848.4697265625 1419.518310546875" xml:space="preserve" height="83.70569069602271" width="109" preserveAspectRatio="xMinYMin" enable-background="new 0 0 5000 3000" style="overflow: visible;"><path d="M2974.65,2093.88c-107.4-30.49-212.55-72.07-317.99-113.12c27.6-3.63,54.78-9.98,80.92-19.34   c226.17,68.17,445.05-95.92,560.7-281.18c0,0,46.68-74.52,46.68-74.52c-68.92,38.64-146.55,78.14-226.38,92.84   c-53.59,13.69-108.26,12.4-161.99,29.01c-107.57,29.58-195.34,119.65-224.15,225.93c-35.49,10.05-72.51,14.67-109.56,14.15   c-60.14-23.25-120.54-45.62-181.53-65.53c260.53-234.84,33.24-671.44-322.46-602.9c-254.76,45.44-381.22,361.76-216.27,559.05   c-124.33,43.37-230.99,138.83-267.12,267.62c34.93-68.77,82.24-120.29,137.18-157.84c74.86-28.78,161.28-23.61,233.36,11.52   c6.19,162.85,157.4,237.41,306.87,229.65c87.1,1.32,211.43-40.06,296.24-62.3c0,0-159.45-4.29-159.45-4.29   c-80.29-8.66-136.64-74.97-195.55-123.73c-71.46-51.82-164.15-63.02-248.1-47.58c-52.45-28.99-113.11-42.12-173.02-37.61   c126.38-58.41,281.07-56.51,424.7-15.22c157.28,43.3,309.47,104.55,463.87,159.06c155.06,53.53,333.19,118.29,496.35,56.18   c80.7-30.69,148.06-83.13,206.28-141.51C3289.85,2089.96,3137.52,2144,2974.65,2093.88z M2966,1763.19   c83.33-12.21,166.33-16.67,245.8-41.68c-112.91,146.6-280.84,262.36-471.6,238.82c45.71-16.76,88.27-41.93,124.4-75.04   c-26.42,19.79-53.65,38.66-84.07,51.17c-15,6.77-30.62,12.01-46.45,16.58C2779.42,1858.84,2864,1784.78,2966,1763.19z    M2231.95,2046.97c37.83,39.49,78.41,83.83,126.99,112.6c-149.24,19.39-308.67-12.28-350.79-179.02   c19.6,9.75,38.17,21.62,55.05,35.76c12.38,9.76,23.36,21.21,35.18,31.8c-11.09-11.26-21.42-23.45-33.25-34.05   c-17.83-16.78-37.7-30.92-58.83-42.62C2086.59,1974.77,2171.06,1994.51,2231.95,2046.97z M2018.86,1833.58   c-37.69,2.88-75.15,10.88-111.26,23.03c-124.03-228.26,46.02-519.3,313.1-491.97c262.49,27.8,368.95,336.43,213.35,535.13   c-12.94-4.17-25.83-8.56-38.83-12.46C2275.97,1848.32,2145.17,1819.17,2018.86,1833.58z" style="fill: #FFFFFF; fill-opacity: 1;"></path><path d="M2743.05,1560.19c6.81,0,12.32-5.52,12.32-12.32c0-6.81-5.52-12.32-12.32-12.32c-6.8,0-12.32,5.52-12.32,12.32   C2730.73,1554.67,2736.25,1560.19,2743.05,1560.19z" style="fill: #FFFFFF; fill-opacity: 1;"></path><path d="M3004.26,890.5c6.8,0,12.32-5.52,12.32-12.32c0-6.8-5.52-12.32-12.32-12.32s-12.32,5.52-12.32,12.32   C2991.94,884.98,2997.46,890.5,3004.26,890.5z" style="fill: #FFFFFF; fill-opacity: 1;"></path><circle cx="2676.92" cy="1087.26" r="53.81" style="fill: #FFFFFF; fill-opacity: 1;"></circle><circle cx="3135.67" cy="1305.42" r="23.54" style="fill: #FFFFFF; fill-opacity: 1;"></circle><path d="M2101.4,829.47c10.83,0,19.61-8.78,19.61-19.61c0-10.83-8.78-19.61-19.61-19.61c-10.83,0-19.61,8.78-19.61,19.61   C2081.78,820.69,2090.56,829.47,2101.4,829.47z" style="fill: #FFFFFF; fill-opacity: 1;"></path><path d="M1608.9,1054.37c-14.69,0-26.6,11.91-26.6,26.6c0,14.69,11.91,26.6,26.6,26.6c14.69,0,26.6-11.91,26.6-26.6   C1635.51,1066.28,1623.6,1054.37,1608.9,1054.37z" style="fill: #FFFFFF; fill-opacity: 1;"></path><path d="M1582.3,1537.18c-3.61,0-6.54,2.93-6.54,6.54c0,3.61,2.93,6.54,6.54,6.54c3.61,0,6.54-2.93,6.54-6.54   C1588.84,1540.11,1585.91,1537.18,1582.3,1537.18z" style="fill: #FFFFFF; fill-opacity: 1;"></path></svg> <svg y="353.8099899291992" viewBox="0.8300000429153442 3.7300000190734863 288.57000732421875 18.700000762939453" x="143.215" height="18.700000762939453" width="288.57000732421875" xmlns="http://www.w3.org/2000/svg" style="overflow: visible;"><g fill="#FFFFFF" fill-opacity="1" style=""><path d="M3.70 5.53Q2.60 5.53 1.88 5.95Q1.15 6.38 0.83 7.03L0.83 7.03L1.18 4.53L13.03 4.53L13.38 7.03Q13.05 6.38 12.33 5.95Q11.60 5.53 10.50 5.53L10.50 5.53L8 5.53L8 19.40Q8 20.40 8.25 20.93Q8.50 21.45 8.80 21.63Q9.10 21.80 9.10 21.73L9.10 21.73L5.13 21.73Q5.13 21.80 5.43 21.63Q5.73 21.45 5.96 20.94Q6.20 20.43 6.20 19.40L6.20 19.40L6.20 5.53L3.70 5.53ZM31.05 15.05L24.83 15.05L23.23 19.03Q22.85 19.95 22.85 20.55L22.85 20.55Q22.85 21.38 23.60 21.73L23.60 21.73L20.03 21.73Q20.28 21.73 20.75 21.23Q21.23 20.73 21.85 19.25L21.85 19.25L28.38 3.73L34.85 19.33Q35.40 20.68 35.91 21.18Q36.42 21.68 36.73 21.73L36.73 21.73L32.58 21.73Q33.20 21.43 33.20 20.80L33.20 20.80Q33.20 20.28 32.80 19.30L32.80 19.30L31.05 15.05ZM25.25 14.03L30.65 14.03L27.93 7.35L25.25 14.03ZM58.20 4.53L61.73 4.53Q61.38 4.60 61.04 5.09Q60.70 5.57 60.70 6.80L60.70 6.80L60.70 22.43L47.90 7.50L47.90 19.48Q47.90 20.68 48.33 21.16Q48.75 21.65 49.15 21.73L49.15 21.73L45.63 21.73Q45.98 21.65 46.34 21.16Q46.70 20.68 46.70 19.45L46.70 19.45L46.70 6.95Q46.70 6.10 46.13 5.40Q45.55 4.70 44.67 4.53L44.67 4.53L47.77 4.53L59.50 18.20L59.50 6.80Q59.50 4.88 58.20 4.53L58.20 4.53ZM100.60 20.95Q99.95 22.03 98.98 22.03L98.98 22.03Q98.25 22.03 97.19 21.38Q96.13 20.73 94.60 19.45L94.60 19.45Q92.08 22.03 89.65 22.03L89.65 22.03Q87.35 22.03 86.08 20.80Q84.80 19.58 84.80 17.60L84.80 17.60Q84.80 16.03 85.71 14.95Q86.63 13.88 88.43 12.73L88.43 12.73Q86.40 10.18 86.40 8.23L86.40 8.23Q86.40 6.93 86.99 6.03Q87.58 5.13 88.53 4.68Q89.48 4.23 90.55 4.23L90.55 4.23Q91.55 4.23 92.44 4.63Q93.33 5.03 93.86 5.78Q94.40 6.53 94.40 7.55L94.40 7.55Q94.40 9 93.38 10.11Q92.35 11.23 90.45 12.48L90.45 12.48Q92.75 15.35 94.98 17.40L94.98 17.40Q95.98 15.83 96.55 14.63Q97.13 13.43 97.13 12.48L97.13 12.48Q97.13 11.55 96.53 10.98L96.53 10.98L99.78 10.98Q99.20 11.55 98.08 14.08L98.08 14.08Q97.30 15.85 95.73 18.03L95.73 18.03Q95.88 18.13 96.18 18.38L96.18 18.38Q97.43 19.38 98.36 19.95Q99.30 20.53 100.15 20.53L100.15 20.53Q100.40 20.53 101 20.15L101 20.15Q100.85 20.58 100.60 20.95L100.60 20.95ZM90.38 5Q89.13 5 88.53 5.75Q87.93 6.50 87.93 7.53L87.93 7.53Q87.93 8.45 88.54 9.61Q89.15 10.78 89.95 11.83L89.95 11.83Q91.50 10.88 92.16 9.95Q92.83 9.03 92.83 7.80L92.83 7.80Q92.83 6.43 92.10 5.71Q91.38 5 90.38 5L90.38 5ZM88.95 13.43Q87.68 14.23 87.04 15.08Q86.40 15.93 86.40 17.05L86.40 17.05Q86.40 18.03 86.91 18.90Q87.43 19.78 88.30 20.30Q89.18 20.83 90.18 20.83L90.18 20.83Q91.25 20.83 92.03 20.34Q92.80 19.85 93.88 18.80L93.88 18.80Q92.60 17.63 91.29 16.19Q89.98 14.75 88.95 13.43L88.95 13.43ZM142.33 7.03Q142.63 6.13 142.63 5.63L142.63 5.63Q142.63 4.60 141.73 4.53L141.73 4.53L145.60 4.53Q145.23 4.60 144.64 5.10Q144.05 5.60 143.55 7.05L143.55 7.05L138.15 22.33L133.33 8.48L128.35 22.33L123.43 6.98Q122.78 4.88 121.53 4.53L121.53 4.53L125.68 4.53Q124.98 4.65 124.98 5.35L124.98 5.35Q124.98 5.70 125.28 6.60L125.28 6.60L125.55 7.48L128.70 17.90L133.78 4.05L138.60 17.80L142.33 7.03ZM163.68 21.73L154.25 21.73Q154.25 21.80 154.55 21.61Q154.85 21.43 155.09 20.86Q155.32 20.30 155.32 19.23L155.32 19.23L155.32 6.95Q155.32 5.93 155.09 5.39Q154.85 4.85 154.55 4.65Q154.25 4.45 154.25 4.53L154.25 4.53L163.30 4.53L163.30 7.03Q162.85 5.53 160.60 5.53L160.60 5.53L157.13 5.53L157.13 12.63L161.43 12.63Q161.93 12.63 162.28 12.46Q162.63 12.30 162.80 12.13Q162.97 11.95 163 11.90L163 11.90L163 14.33Q162.97 14.28 162.80 14.10Q162.63 13.93 162.29 13.78Q161.95 13.63 161.45 13.63L161.45 13.63L157.13 13.63L157.13 20.73L161.03 20.73Q162.15 20.73 162.96 20.26Q163.78 19.80 164.13 19.08L164.13 19.08L163.68 21.73ZM175.27 6.85Q175.27 5.85 175.04 5.34Q174.80 4.82 174.50 4.65Q174.20 4.48 174.20 4.53L174.20 4.53L178.17 4.53Q178.17 4.48 177.88 4.65Q177.57 4.82 177.32 5.34Q177.07 5.85 177.07 6.85L177.07 6.85L177.07 20.73L181.17 20.73Q182.30 20.73 183.11 20.26Q183.92 19.80 184.27 19.08L184.27 19.08L183.82 21.73L174.20 21.73Q174.20 21.80 174.50 21.61Q174.80 21.43 175.04 20.86Q175.27 20.30 175.27 19.23L175.27 19.23L175.27 6.85ZM194.67 6.85Q194.67 5.85 194.44 5.34Q194.20 4.82 193.90 4.65Q193.60 4.48 193.60 4.53L193.60 4.53L197.57 4.53Q197.57 4.48 197.28 4.65Q196.97 4.82 196.72 5.34Q196.47 5.85 196.47 6.85L196.47 6.85L196.47 20.73L200.57 20.73Q201.70 20.73 202.51 20.26Q203.32 19.80 203.67 19.08L203.67 19.08L203.22 21.73L193.60 21.73Q193.60 21.80 193.90 21.61Q194.20 21.43 194.44 20.86Q194.67 20.30 194.67 19.23L194.67 19.23L194.67 6.85ZM225.57 4.53L229.10 4.53Q228.75 4.60 228.41 5.09Q228.07 5.57 228.07 6.80L228.07 6.80L228.07 22.43L215.28 7.50L215.28 19.48Q215.28 20.68 215.70 21.16Q216.13 21.65 216.53 21.73L216.53 21.73L213 21.73Q213.35 21.65 213.71 21.16Q214.07 20.68 214.07 19.45L214.07 19.45L214.07 6.95Q214.07 6.10 213.50 5.40Q212.93 4.70 212.05 4.53L212.05 4.53L215.15 4.53L226.88 18.20L226.88 6.80Q226.88 4.88 225.57 4.53L225.57 4.53ZM249.18 21.73L239.75 21.73Q239.75 21.80 240.05 21.61Q240.35 21.43 240.59 20.86Q240.82 20.30 240.82 19.23L240.82 19.23L240.82 6.95Q240.82 5.93 240.59 5.39Q240.35 4.85 240.05 4.65Q239.75 4.45 239.75 4.53L239.75 4.53L248.80 4.53L248.80 7.03Q248.35 5.53 246.10 5.53L246.10 5.53L242.63 5.53L242.63 12.63L246.93 12.63Q247.43 12.63 247.78 12.46Q248.13 12.30 248.30 12.13Q248.47 11.95 248.50 11.90L248.50 11.90L248.50 14.33Q248.47 14.28 248.30 14.10Q248.13 13.93 247.79 13.78Q247.45 13.63 246.95 13.63L246.95 13.63L242.63 13.63L242.63 20.73L246.53 20.73Q247.65 20.73 248.46 20.26Q249.28 19.80 249.63 19.08L249.63 19.08L249.18 21.73ZM264.25 22.03Q262.95 22.03 261.75 21.66Q260.55 21.30 259.60 20.65L259.60 20.65L259.60 17.63Q260.25 19.30 261.59 20.16Q262.93 21.03 264.38 21.03L264.38 21.03Q265.82 21.03 266.80 20.06Q267.77 19.10 267.77 17.68L267.77 17.68Q267.77 16.73 267.39 16.05Q267 15.38 266.15 14.79Q265.30 14.20 263.75 13.48L263.75 13.48Q261.57 12.48 260.59 11.39Q259.60 10.30 259.60 8.75L259.60 8.75Q259.60 7.43 260.24 6.39Q260.88 5.35 261.96 4.79Q263.05 4.23 264.35 4.23L264.35 4.23Q265.47 4.23 266.55 4.54Q267.63 4.85 268.55 5.43L268.55 5.43L268.55 8.13Q267.95 6.75 266.74 5.99Q265.52 5.23 264.27 5.23L264.27 5.23Q262.85 5.23 261.97 6.15Q261.10 7.08 261.10 8.35L261.10 8.35Q261.10 9.28 261.63 9.94Q262.15 10.60 262.91 11.05Q263.68 11.50 265.05 12.15L265.05 12.15Q266.45 12.83 267.35 13.40Q268.25 13.98 268.85 14.90Q269.45 15.83 269.45 17.15L269.45 17.15Q269.45 18.65 268.74 19.75Q268.02 20.85 266.84 21.44Q265.65 22.03 264.25 22.03L264.25 22.03ZM284.20 22.03Q282.90 22.03 281.70 21.66Q280.50 21.30 279.55 20.65L279.55 20.65L279.55 17.63Q280.20 19.30 281.54 20.16Q282.88 21.03 284.32 21.03L284.32 21.03Q285.77 21.03 286.75 20.06Q287.72 19.10 287.72 17.68L287.72 17.68Q287.72 16.73 287.34 16.05Q286.95 15.38 286.10 14.79Q285.25 14.20 283.70 13.48L283.70 13.48Q281.52 12.48 280.54 11.39Q279.55 10.30 279.55 8.75L279.55 8.75Q279.55 7.43 280.19 6.39Q280.82 5.35 281.91 4.79Q283 4.23 284.30 4.23L284.30 4.23Q285.42 4.23 286.50 4.54Q287.57 4.85 288.50 5.43L288.50 5.43L288.50 8.13Q287.90 6.75 286.69 5.99Q285.47 5.23 284.22 5.23L284.22 5.23Q282.80 5.23 281.92 6.15Q281.05 7.08 281.05 8.35L281.05 8.35Q281.05 9.28 281.57 9.94Q282.10 10.60 282.86 11.05Q283.63 11.50 285 12.15L285 12.15Q286.40 12.83 287.30 13.40Q288.20 13.98 288.80 14.90Q289.40 15.83 289.40 17.15L289.40 17.15Q289.40 18.65 288.69 19.75Q287.97 20.85 286.79 21.44Q285.60 22.03 284.20 22.03L284.20 22.03Z" transform="translate(0, 0)"></path></g></svg> <svg y="305.3099899291992" viewBox="2.0199999809265137 7.269999980926514 443.25 31.299999237060547" x="65.87500091552735" height="31.299999237060547" width="443.25" xmlns="http://www.w3.org/2000/svg" style="overflow: visible;"><g fill="#FFFFFF" fill-opacity="1" style=""><path d="M25.28 7.78L31.35 7.78Q30.75 7.91 30.16 8.75Q29.58 9.59 29.58 11.70L29.58 11.70L29.58 38.57L7.57 12.90L7.57 33.50Q7.57 35.56 8.30 36.40Q9.03 37.24 9.72 37.37L9.72 37.37L3.66 37.37Q4.26 37.24 4.88 36.40Q5.50 35.56 5.50 33.45L5.50 33.45L5.50 11.95Q5.50 10.49 4.52 9.29Q3.53 8.08 2.02 7.78L2.02 7.78L7.35 7.78L27.52 31.30L27.52 11.70Q27.52 8.39 25.28 7.78L25.28 7.78ZM41.02 22.92Q41.02 18.36 42.98 14.79Q44.94 11.22 48.48 9.25Q52.03 7.27 56.67 7.27L56.67 7.27Q60.54 7.27 63.92 8.97Q67.30 10.66 69.34 14.06Q71.38 17.46 71.38 22.23L71.38 22.23Q71.38 26.79 69.42 30.36Q67.47 33.93 63.92 35.91Q60.37 37.88 55.73 37.88L55.73 37.88Q51.86 37.88 48.48 36.18Q45.11 34.49 43.06 31.09Q41.02 27.69 41.02 22.92L41.02 22.92ZM67.94 22.88Q67.94 18.96 66.33 15.80Q64.72 12.64 61.90 10.86Q59.08 9.07 55.56 9.07L55.56 9.07Q52.33 9.07 49.82 10.71Q47.30 12.34 45.88 15.33Q44.46 18.32 44.46 22.27L44.46 22.27Q44.46 26.19 46.07 29.35Q47.69 32.51 50.50 34.29Q53.32 36.08 56.85 36.08L56.85 36.08Q60.07 36.08 62.59 34.44Q65.10 32.81 66.52 29.82Q67.94 26.83 67.94 22.88L67.94 22.88ZM89.61 22.49Q91.59 22.49 93.05 21.56Q94.51 20.64 95.27 19.16Q96.02 17.67 96.02 16.04L96.02 16.04Q96.02 14.36 95.31 12.88Q94.60 11.40 93.14 10.45Q91.68 9.50 89.57 9.50L89.57 9.50L85.91 9.50L85.91 33.41Q85.91 35.13 86.34 36.01Q86.77 36.89 87.29 37.17Q87.81 37.45 87.81 37.37L87.81 37.37L80.97 37.37Q80.97 37.45 81.49 37.15Q82.00 36.85 82.41 35.99Q82.82 35.13 82.82 33.41L82.82 33.41L82.82 11.91Q82.82 10.15 82.41 9.22Q82.00 8.30 81.49 7.98Q80.97 7.65 80.97 7.78L80.97 7.78L89.48 7.78Q92.84 7.78 95.01 8.88Q97.18 9.98 98.15 11.72Q99.12 13.46 99.12 15.52L99.12 15.52Q99.12 17.24 98.30 18.90Q97.48 20.55 95.95 21.78Q94.43 23.01 92.41 23.48L92.41 23.48L91.72 23.61L99.29 33.24Q100.79 34.92 101.78 35.82Q102.77 36.72 103.22 37.02Q103.67 37.32 103.76 37.37L103.76 37.37L98.73 37.37L87.03 22.49L89.61 22.49ZM113.52 9.50Q111.63 9.50 110.38 10.23Q109.13 10.97 108.58 12.08L108.58 12.08L109.18 7.78L129.56 7.78L130.16 12.08Q129.60 10.97 128.36 10.23Q127.11 9.50 125.22 9.50L125.22 9.50L120.92 9.50L120.92 33.37Q120.92 35.09 121.35 35.99Q121.78 36.89 122.29 37.20Q122.81 37.50 122.81 37.37L122.81 37.37L115.97 37.37Q115.97 37.50 116.49 37.20Q117.00 36.89 117.41 36.01Q117.82 35.13 117.82 33.37L117.82 33.37L117.82 9.50L113.52 9.50ZM157.64 37.37Q157.64 37.50 158.15 37.17Q158.67 36.85 159.10 35.97Q159.53 35.09 159.53 33.37L159.53 33.37L159.53 23.61L143.36 23.61L143.36 33.37Q143.36 35.09 143.79 35.97Q144.22 36.85 144.74 37.15Q145.25 37.45 145.25 37.37L145.25 37.37L138.42 37.37Q138.42 37.50 138.93 37.17Q139.45 36.85 139.86 35.97Q140.27 35.09 140.27 33.37L140.27 33.37L140.27 11.78Q140.27 10.06 139.86 9.18Q139.45 8.30 138.93 8.00Q138.42 7.70 138.42 7.78L138.42 7.78L145.25 7.78Q145.25 7.70 144.74 8.00Q144.22 8.30 143.79 9.18Q143.36 10.06 143.36 11.78L143.36 11.78L143.36 21.72L159.53 21.72L159.53 11.78Q159.53 10.06 159.10 9.18Q158.67 8.30 158.15 8.00Q157.64 7.70 157.64 7.78L157.64 7.78L164.48 7.78Q164.48 7.65 163.96 7.98Q163.44 8.30 163.03 9.18Q162.63 10.06 162.63 11.78L162.63 11.78L162.63 33.37Q162.63 35.09 163.06 35.97Q163.49 36.85 164.00 37.15Q164.52 37.45 164.52 37.37L164.52 37.37L157.64 37.37ZM191.18 37.37L174.97 37.37Q174.97 37.50 175.48 37.17Q176.00 36.85 176.41 35.88Q176.82 34.92 176.82 33.07L176.82 33.07L176.82 11.95Q176.82 10.19 176.41 9.27Q176.00 8.34 175.48 8.00Q174.97 7.65 174.97 7.78L174.97 7.78L190.53 7.78L190.53 12.08Q189.76 9.50 185.89 9.50L185.89 9.50L179.91 9.50L179.91 21.72L187.31 21.72Q188.17 21.72 188.77 21.44Q189.37 21.16 189.67 20.86Q189.97 20.55 190.02 20.47L190.02 20.47L190.02 24.64Q189.97 24.55 189.67 24.25Q189.37 23.95 188.79 23.69Q188.21 23.44 187.35 23.44L187.35 23.44L179.91 23.44L179.91 35.65L186.62 35.65Q188.56 35.65 189.95 34.85Q191.35 34.06 191.95 32.81L191.95 32.81L191.18 37.37ZM210.18 22.49Q212.16 22.49 213.62 21.56Q215.09 20.64 215.84 19.16Q216.59 17.67 216.59 16.04L216.59 16.04Q216.59 14.36 215.88 12.88Q215.17 11.40 213.71 10.45Q212.25 9.50 210.14 9.50L210.14 9.50L206.49 9.50L206.49 33.41Q206.49 35.13 206.92 36.01Q207.35 36.89 207.86 37.17Q208.38 37.45 208.38 37.37L208.38 37.37L201.54 37.37Q201.54 37.45 202.06 37.15Q202.57 36.85 202.98 35.99Q203.39 35.13 203.39 33.41L203.39 33.41L203.39 11.91Q203.39 10.15 202.98 9.22Q202.57 8.30 202.06 7.98Q201.54 7.65 201.54 7.78L201.54 7.78L210.06 7.78Q213.41 7.78 215.58 8.88Q217.75 9.98 218.72 11.72Q219.69 13.46 219.69 15.52L219.69 15.52Q219.69 17.24 218.87 18.90Q218.05 20.55 216.53 21.78Q215.00 23.01 212.98 23.48L212.98 23.48L212.29 23.61L219.86 33.24Q221.36 34.92 222.35 35.82Q223.34 36.72 223.79 37.02Q224.25 37.32 224.33 37.37L224.33 37.37L219.30 37.37L207.60 22.49L210.18 22.49ZM253.70 7.78L259.76 7.78Q259.16 7.91 258.58 8.75Q258.00 9.59 258.00 11.70L258.00 11.70L258.00 38.57L235.98 12.90L235.98 33.50Q235.98 35.56 236.72 36.40Q237.45 37.24 238.13 37.37L238.13 37.37L232.07 37.37Q232.67 37.24 233.30 36.40Q233.92 35.56 233.92 33.45L233.92 33.45L233.92 11.95Q233.92 10.49 232.93 9.29Q231.94 8.08 230.44 7.78L230.44 7.78L235.77 7.78L255.94 31.30L255.94 11.70Q255.94 8.39 253.70 7.78L253.70 7.78ZM287.07 11.78Q287.07 10.06 286.66 9.18Q286.25 8.30 285.74 8.00Q285.22 7.70 285.22 7.78L285.22 7.78L292.06 7.78Q292.06 7.70 291.54 8.00Q291.02 8.30 290.59 9.18Q290.16 10.06 290.16 11.78L290.16 11.78L290.16 35.65L297.22 35.65Q299.15 35.65 300.55 34.85Q301.95 34.06 302.55 32.81L302.55 32.81L301.77 37.37L285.22 37.37Q285.22 37.50 285.74 37.17Q286.25 36.85 286.66 35.88Q287.07 34.92 287.07 33.07L287.07 33.07L287.07 11.78ZM310.80 37.37Q310.80 37.50 311.32 37.17Q311.84 36.85 312.27 35.97Q312.70 35.09 312.70 33.37L312.70 33.37L312.70 11.78Q312.70 10.06 312.29 9.18Q311.88 8.30 311.36 8.00Q310.85 7.70 310.85 7.78L310.85 7.78L317.68 7.78Q317.68 7.70 317.17 8.00Q316.65 8.30 316.22 9.18Q315.79 10.06 315.79 11.78L315.79 11.78L315.79 33.37Q315.79 35.09 316.22 35.97Q316.65 36.85 317.17 37.15Q317.68 37.45 317.68 37.37L317.68 37.37L310.80 37.37ZM342.50 37.84Q338.41 37.84 334.93 36.12Q331.44 34.40 329.34 30.96Q327.23 27.52 327.23 22.58L327.23 22.58Q327.23 18.19 329.23 14.71Q331.23 11.22 334.86 9.25Q338.50 7.27 343.23 7.27L343.23 7.27Q346.24 7.27 348.67 7.96Q351.10 8.64 352.51 9.46L352.51 9.46L352.51 14.23Q351.18 11.91 348.54 10.49Q345.89 9.07 343.14 9.07L343.14 9.07Q339.31 9.07 336.50 10.69Q333.68 12.30 332.18 15.27Q330.67 18.23 330.67 22.23L330.67 22.23Q330.67 26.57 332.41 29.67Q334.15 32.77 337.03 34.31Q339.92 35.86 343.31 35.86L343.31 35.86Q344.86 35.86 346.52 35.50Q348.17 35.13 349.59 34.44L349.59 34.44L349.59 27.35Q349.59 26.02 349.16 25.26Q348.73 24.51 348.21 24.19Q347.70 23.87 347.70 23.95L347.70 23.95L354.58 23.95Q354.58 23.87 354.06 24.12Q353.55 24.38 353.12 25.09Q352.69 25.80 352.69 27.09L352.69 27.09L352.69 34.92Q350.41 36.34 347.76 37.09Q345.12 37.84 342.50 37.84L342.50 37.84ZM383.56 37.37Q383.56 37.50 384.08 37.17Q384.59 36.85 385.02 35.97Q385.45 35.09 385.45 33.37L385.45 33.37L385.45 23.61L369.28 23.61L369.28 33.37Q369.28 35.09 369.71 35.97Q370.14 36.85 370.66 37.15Q371.18 37.45 371.18 37.37L371.18 37.37L364.34 37.37Q364.34 37.50 364.86 37.17Q365.37 36.85 365.78 35.97Q366.19 35.09 366.19 33.37L366.19 33.37L366.19 11.78Q366.19 10.06 365.78 9.18Q365.37 8.30 364.86 8.00Q364.34 7.70 364.34 7.78L364.34 7.78L371.18 7.78Q371.18 7.70 370.66 8.00Q370.14 8.30 369.71 9.18Q369.28 10.06 369.28 11.78L369.28 11.78L369.28 21.72L385.45 21.72L385.45 11.78Q385.45 10.06 385.02 9.18Q384.59 8.30 384.08 8.00Q383.56 7.70 383.56 7.78L383.56 7.78L390.40 7.78Q390.40 7.65 389.88 7.98Q389.37 8.30 388.96 9.18Q388.55 10.06 388.55 11.78L388.55 11.78L388.55 33.37Q388.55 35.09 388.98 35.97Q389.41 36.85 389.92 37.15Q390.44 37.45 390.44 37.37L390.44 37.37L383.56 37.37ZM403.60 9.50Q401.71 9.50 400.46 10.23Q399.21 10.97 398.65 12.08L398.65 12.08L399.26 7.78L419.64 7.78L420.24 12.08Q419.68 10.97 418.43 10.23Q417.19 9.50 415.29 9.50L415.29 9.50L410.99 9.50L410.99 33.37Q410.99 35.09 411.42 35.99Q411.85 36.89 412.37 37.20Q412.89 37.50 412.89 37.37L412.89 37.37L406.05 37.37Q406.05 37.50 406.57 37.20Q407.08 36.89 407.49 36.01Q407.90 35.13 407.90 33.37L407.90 33.37L407.90 9.50L403.60 9.50ZM436.32 37.88Q434.09 37.88 432.02 37.26Q429.96 36.64 428.32 35.52L428.32 35.52L428.32 30.32Q429.44 33.20 431.74 34.68Q434.04 36.16 436.54 36.16L436.54 36.16Q439.03 36.16 440.71 34.51Q442.38 32.85 442.38 30.40L442.38 30.40Q442.38 28.77 441.72 27.61Q441.05 26.45 439.59 25.43Q438.13 24.42 435.46 23.18L435.46 23.18Q431.72 21.46 430.02 19.59Q428.32 17.72 428.32 15.05L428.32 15.05Q428.32 12.77 429.42 10.99Q430.52 9.20 432.39 8.23Q434.26 7.27 436.49 7.27L436.49 7.27Q438.43 7.27 440.28 7.80Q442.13 8.34 443.72 9.33L443.72 9.33L443.72 13.98Q442.69 11.61 440.60 10.30Q438.51 8.99 436.36 8.99L436.36 8.99Q433.91 8.99 432.41 10.58Q430.90 12.17 430.90 14.36L430.90 14.36Q430.90 15.95 431.81 17.09Q432.71 18.23 434.02 19.01Q435.33 19.78 437.70 20.90L437.70 20.90Q440.11 22.06 441.65 23.05Q443.20 24.04 444.23 25.63Q445.27 27.22 445.27 29.50L445.27 29.50Q445.27 32.08 444.04 33.97Q442.81 35.86 440.77 36.87Q438.73 37.88 436.32 37.88L436.32 37.88Z" transform="translate(0, 0)"></path></g></svg></svg>